<svg xmlns="http://www.w3.org/2000/svg" viewBox="0 0 175.77 165.23"><defs><style>.cls-1{opacity:0.42;}.cls-2{fill:#fff;}</style></defs><title>dots</title><g id="Layer_2" data-name="Layer 2"><g id="Layer_1-2" data-name="Layer 1"><g class="cls-1"><rect class="cls-2" width="4.48" height="4.8"/><rect class="cls-2" x="34.26" width="4.48" height="4.8"/><rect class="cls-2" x="68.52" width="4.48" height="4.8"/><rect class="cls-2" x="102.77" width="4.48" height="4.8"/><rect class="cls-2" x="137.03" width="4.48" height="4.8"/><rect class="cls-2" x="171.29" width="4.48" height="4.8"/><rect class="cls-2" y="26.74" width="4.48" height="4.8"/><rect class="cls-2" x="34.26" y="26.74" width="4.48" height="4.8"/><rect class="cls-2" x="68.52" y="26.74" width="4.48" height="4.8"/><rect class="cls-2" x="102.77" y="26.74" width="4.48" height="4.8"/><rect class="cls-2" x="137.03" y="26.74" width="4.48" height="4.8"/><rect class="cls-2" x="171.29" y="26.74" width="4.48" height="4.8"/><rect class="cls-2" y="53.48" width="4.48" height="4.8"/><rect class="cls-2" x="34.26" y="53.48" width="4.48" height="4.8"/><rect class="cls-2" x="68.52" y="53.48" width="4.48" height="4.8"/><rect class="cls-2" x="102.77" y="53.48" width="4.48" height="4.8"/><rect class="cls-2" x="137.03" y="53.48" width="4.48" height="4.8"/><rect class="cls-2" x="171.29" y="53.48" width="4.48" height="4.8"/><rect class="cls-2" y="80.22" width="4.48" height="4.8"/><rect class="cls-2" x="34.26" y="80.22" width="4.48" height="4.8"/><rect class="cls-2" x="68.52" y="80.22" width="4.48" height="4.8"/><rect class="cls-2" x="102.77" y="80.22" width="4.48" height="4.8"/><rect class="cls-2" x="137.03" y="80.22" width="4.48" height="4.8"/><rect class="cls-2" x="171.29" y="80.22" width="4.48" height="4.8"/><rect class="cls-2" y="106.96" width="4.48" height="4.8"/><rect class="cls-2" x="34.26" y="106.96" width="4.48" height="4.8"/><rect class="cls-2" x="68.52" y="106.96" width="4.48" height="4.8"/><rect class="cls-2" x="102.77" y="106.96" width="4.48" height="4.8"/><rect class="cls-2" x="137.03" y="106.96" width="4.48" height="4.8"/><rect class="cls-2" x="171.29" y="106.96" width="4.48" height="4.8"/><rect class="cls-2" y="133.69" width="4.48" height="4.8"/><rect class="cls-2" x="34.26" y="133.69" width="4.48" height="4.8"/><rect class="cls-2" x="68.52" y="133.69" width="4.48" height="4.8"/><rect class="cls-2" x="102.77" y="133.69" width="4.48" height="4.8"/><rect class="cls-2" x="137.03" y="133.69" width="4.48" height="4.8"/><rect class="cls-2" x="171.29" y="133.69" width="4.48" height="4.8"/><rect class="cls-2" y="160.43" width="4.48" height="4.8"/><rect class="cls-2" x="34.26" y="160.43" width="4.48" height="4.8"/><rect class="cls-2" x="68.52" y="160.43" width="4.48" height="4.8"/><rect class="cls-2" x="102.77" y="160.43" width="4.48" height="4.8"/><rect class="cls-2" x="137.03" y="160.43" width="4.48" height="4.8"/><rect class="cls-2" x="171.29" y="160.43" width="4.48" height="4.8"/></g></g></g></svg>