<svg xmlns="http://www.w3.org/2000/svg" viewBox="0 0 271.83 27.61"><defs><style>.cls-1{opacity:0.45;}.cls-2{fill:none;stroke:#fff;stroke-miterlimit:10;}</style></defs><title>Asset 12</title><g id="Layer_2" data-name="Layer 2"><g id="Layer_1-2" data-name="Layer 1"><g class="cls-1"><line class="cls-2" x1="18.92" y1="0.28" x2="0.41" y2="27.33"/><line class="cls-2" x1="27.94" y1="0.28" x2="9.43" y2="27.33"/><line class="cls-2" x1="36.96" y1="0.28" x2="18.45" y2="27.33"/><line class="cls-2" x1="45.97" y1="0.28" x2="27.47" y2="27.33"/><line class="cls-2" x1="54.99" y1="0.28" x2="36.48" y2="27.33"/><line class="cls-2" x1="64.01" y1="0.28" x2="45.5" y2="27.33"/><line class="cls-2" x1="73.03" y1="0.28" x2="54.52" y2="27.33"/><line class="cls-2" x1="82.04" y1="0.28" x2="63.54" y2="27.33"/><line class="cls-2" x1="91.06" y1="0.28" x2="72.55" y2="27.33"/><line class="cls-2" x1="100.08" y1="0.28" x2="81.57" y2="27.33"/><line class="cls-2" x1="109.1" y1="0.28" x2="90.59" y2="27.33"/><line class="cls-2" x1="118.11" y1="0.28" x2="99.61" y2="27.33"/><line class="cls-2" x1="127.13" y1="0.28" x2="108.62" y2="27.33"/><line class="cls-2" x1="136.15" y1="0.28" x2="117.64" y2="27.33"/><line class="cls-2" x1="145.17" y1="0.28" x2="126.66" y2="27.33"/><line class="cls-2" x1="154.18" y1="0.28" x2="135.68" y2="27.33"/><line class="cls-2" x1="163.2" y1="0.28" x2="144.69" y2="27.33"/><line class="cls-2" x1="172.22" y1="0.28" x2="153.71" y2="27.33"/><line class="cls-2" x1="181.24" y1="0.28" x2="162.73" y2="27.33"/><line class="cls-2" x1="190.25" y1="0.28" x2="171.75" y2="27.33"/><line class="cls-2" x1="199.27" y1="0.28" x2="180.76" y2="27.33"/><line class="cls-2" x1="208.29" y1="0.28" x2="189.78" y2="27.33"/><line class="cls-2" x1="217.31" y1="0.28" x2="198.8" y2="27.33"/><line class="cls-2" x1="226.33" y1="0.28" x2="207.82" y2="27.33"/><line class="cls-2" x1="235.34" y1="0.28" x2="216.83" y2="27.33"/><line class="cls-2" x1="244.36" y1="0.28" x2="225.85" y2="27.33"/><line class="cls-2" x1="253.38" y1="0.28" x2="234.87" y2="27.33"/><line class="cls-2" x1="262.4" y1="0.28" x2="243.89" y2="27.33"/><line class="cls-2" x1="271.41" y1="0.28" x2="252.9" y2="27.33"/></g></g></g></svg>