<svg xmlns="http://www.w3.org/2000/svg" viewBox="0 0 92.58 169.86"><defs><style>.cls-1{fill:none;stroke:#fff;stroke-linecap:round;stroke-linejoin:round;stroke-width:0.78px;}</style></defs><title>Asset 13</title><g id="Layer_2" data-name="Layer 2"><g id="Layer_1-2" data-name="Layer 1"><polygon class="cls-1" points="92.19 18.91 87.53 8.62 72.52 15.41 65.73 0.39 55.43 5.05 62.22 20.06 47.2 26.85 51.86 37.15 66.88 30.36 73.67 45.38 83.96 40.72 77.17 25.7 92.19 18.91"/><polygon class="cls-1" points="68.78 80.96 64.13 70.67 49.11 77.45 42.32 62.44 32.02 67.09 38.81 82.11 23.8 88.9 28.45 99.2 43.47 92.41 50.26 107.42 60.56 102.77 53.77 87.75 68.78 80.96"/><polygon class="cls-1" points="45.38 143.01 40.72 132.71 25.7 139.5 18.91 124.49 8.62 129.14 15.41 144.16 0.39 150.95 5.05 161.25 20.06 154.46 26.85 169.47 37.15 164.82 30.36 149.8 45.38 143.01"/></g></g></svg>